<?xml version="1.0" encoding="UTF-8" standalone="no"?>
<!DOCTYPE svg PUBLIC "-//W3C//DTD SVG 1.1//EN" "http://www.w3.org/Graphics/SVG/1.1/DTD/svg11.dtd">
<svg width="100%" height="100%" viewBox="0 0 512 512" version="1.1" xmlns="http://www.w3.org/2000/svg" xmlns:xlink="http://www.w3.org/1999/xlink" xml:space="preserve" xmlns:serif="http://www.serif.com/" style="fill-rule:evenodd;clip-rule:evenodd;stroke-linejoin:round;stroke-miterlimit:2;">
    <path d="M320,0C302.3,0 288,14.3 288,32C288,49.7 302.3,64 320,64L402.7,64L201.4,265.4C188.9,277.9 188.9,298.2 201.4,310.7C213.9,323.2 234.2,323.2 246.7,310.7L448,109.3L448,192C448,209.7 462.3,224 480,224C497.7,224 512,209.7 512,192L512,32C512,14.3 497.7,0 480,0L320,0ZM80,32C35.8,32 0,67.8 0,112L0,432C0,476.2 35.8,512 80,512L400,512C444.2,512 480,476.2 480,432L480,320C480,302.3 465.7,288 448,288C430.3,288 416,302.3 416,320L416,432C416,440.8 408.8,448 400,448L80,448C71.2,448 64,440.8 64,432L64,112C64,103.2 71.2,96 80,96L192,96C209.7,96 224,81.7 224,64C224,46.3 209.7,32 192,32L80,32Z" style="fill:white;fill-rule:nonzero;"/>
</svg>
