<?xml version="1.0" standalone="no"?>
<!DOCTYPE svg PUBLIC "-//W3C//DTD SVG 20010904//EN"
 "http://www.w3.org/TR/2001/REC-SVG-20010904/DTD/svg10.dtd">
<svg version="1.0" xmlns="http://www.w3.org/2000/svg"
 width="400.000000pt" height="400.000000pt" viewBox="0 0 400.000000 400.000000"
 preserveAspectRatio="xMidYMid meet">
<metadata>
Created by potrace 1.14, written by Peter Selinger 2001-2017
</metadata>
<g transform="translate(0.000000,400.000000) scale(0.100000,-0.100000)"
fill="#000000" stroke="none">
<path d="M3593 1955 c-44 -44 -70 -59 -78 -45 -3 5 -15 6 -29 0 -12 -4 -29 -4
-36 0 -8 5 -18 6 -22 4 -4 -3 -23 -7 -42 -8 -28 -3 -33 -1 -29 12 5 11 3 13
-7 7 -7 -4 -28 -9 -46 -10 -18 0 -36 -4 -40 -8 -4 -4 -13 -2 -21 5 -7 6 -16 8
-19 6 -3 -3 -21 -2 -40 2 -27 6 -37 5 -41 -6 -4 -10 -9 -11 -17 -4 -8 6 -24 6
-43 1 -21 -6 -35 -5 -42 2 -8 8 -11 8 -11 -1 0 -6 -7 -9 -15 -6 -8 4 -12 10
-9 15 3 5 -2 6 -10 3 -9 -3 -13 -10 -10 -15 3 -5 -2 -6 -10 -3 -9 3 -13 11 -9
18 5 8 3 8 -8 0 -8 -6 -38 -9 -66 -8 -29 1 -53 -1 -53 -5 0 -3 -11 -7 -25 -7
-14 -1 -25 3 -25 9 0 6 -3 7 -7 4 -3 -4 -12 -2 -20 5 -8 6 -13 7 -11 2 3 -10
-4 -14 -28 -14 -9 0 -12 5 -8 13 4 6 -2 4 -13 -6 -12 -11 -24 -14 -27 -9 -6
11 -31 10 -42 -1 -4 -3 -14 -3 -23 1 -18 9 -46 8 -76 -3 -16 -6 -17 -5 -5 4 9
7 10 11 3 11 -6 0 -14 -4 -18 -10 -4 -6 -15 -6 -31 0 -32 13 -37 12 -29 0 4
-6 1 -9 -7 -8 -7 2 -16 10 -20 18 -5 12 -7 12 -7 -3 -1 -14 -5 -16 -20 -7 -24
12 -64 13 -57 1 4 -5 -3 -7 -14 -4 -11 3 -20 10 -21 17 0 6 -4 2 -9 -9 l-9
-20 0 20 c-1 13 -4 16 -9 8 -11 -17 -65 -25 -74 -10 -5 8 -11 8 -15 2 -11 -13
-63 -14 -63 -1 0 6 -5 4 -10 -4 -5 -8 -10 -10 -10 -4 0 7 -19 10 -50 9 -27 -1
-47 1 -45 6 7 10 -22 5 -32 -6 -4 -4 -2 -5 6 0 9 5 12 4 7 -3 -4 -6 -13 -9
-21 -6 -8 4 -12 10 -9 15 3 5 -2 6 -10 3 -9 -3 -16 -10 -16 -16 0 -5 -7 -2
-16 6 -17 18 -28 21 -19 6 3 -5 -2 -10 -12 -11 -43 -2 -74 -9 -170 -38 -140
-41 -252 -55 -403 -48 -123 5 -266 34 -353 71 -20 8 -38 12 -41 9 -3 -3 -12 0
-20 6 -11 9 -20 10 -35 2 -13 -7 -22 -8 -26 -1 -3 5 -13 10 -21 10 -8 0 -13
-4 -10 -9 4 -5 -9 -6 -29 -1 -20 4 -38 4 -41 -1 -3 -5 -13 -5 -24 1 -13 7 -20
6 -23 -3 -4 -9 -8 -8 -16 3 -5 8 -13 11 -17 7 -4 -4 -12 -2 -19 3 -8 7 -19 3
-33 -11 -20 -18 -22 -18 -22 -2 0 12 -3 14 -11 6 -9 -9 -18 -8 -37 0 -20 9
-26 9 -30 -1 -3 -10 -8 -8 -19 5 -8 10 -12 13 -9 6 4 -6 2 -14 -4 -18 -5 -3
-10 2 -11 12 0 16 -1 17 -7 1 -5 -12 -11 -15 -21 -9 -8 6 -24 5 -38 0 -12 -5
-23 -5 -23 -1 0 4 -45 7 -100 6 -69 0 -97 2 -93 10 4 6 0 5 -9 -2 -9 -7 -31
-11 -50 -9 -18 2 -43 0 -55 -4 -13 -5 -23 -5 -23 -1 0 4 -11 8 -25 8 l-25 2 0
-959 0 -959 2000 0 2000 0 -1 998 c0 775 -3 993 -12 978 -7 -10 -22 -31 -34
-45 -19 -22 -24 -24 -33 -11 -5 8 -10 10 -10 4 0 -16 -62 -24 -79 -10 -12 9
-13 7 -8 -9 6 -18 6 -18 -6 -3 -10 12 -17 14 -32 6 -15 -9 -17 -8 -12 5 5 14
2 15 -21 6 -34 -13 -28 -15 -58 21 -46 54 -60 56 -101 15z m-2953 -45 c0 -5
-5 -10 -11 -10 -5 0 -7 5 -4 10 3 6 8 10 11 10 2 0 4 -4 4 -10z"/>
</g>
</svg>
